<svg width="574" height="46" viewBox="0 0 574 46" fill="none" xmlns="http://www.w3.org/2000/svg">
<path d="M67.3242 35.4395C73.5469 35.4395 77.8887 31.8535 78.4863 26.1934H73.3184C72.7559 29.1992 70.4883 31.0449 67.3418 31.0449C63.2812 31.0449 60.7324 27.7051 60.7324 22.291C60.7324 16.9473 63.3164 13.5898 67.3242 13.5898C70.418 13.5898 72.8086 15.6289 73.3008 18.7402H78.4688C78.0645 13.0625 73.4238 9.19531 67.3242 9.19531C59.9766 9.19531 55.3184 14.1348 55.3184 22.3086C55.3184 30.5 59.9414 35.4395 67.3242 35.4395ZM89.9592 31.4844C88.0959 31.4844 86.883 30.5879 86.883 29.1641C86.883 27.7402 88.0256 26.8965 90.1702 26.7559L94.2307 26.4746V27.8984C94.2307 30.0078 92.3323 31.4844 89.9592 31.4844ZM88.2893 35.2285C90.7678 35.2285 93.1584 34.0332 94.2131 32.0117H94.3186V35H99.2756V21.7285C99.2756 17.8613 96.0237 15.3125 91.0491 15.3125C86.2151 15.3125 82.8752 17.8613 82.7346 21.5527H87.428C87.6741 20.1465 88.9748 19.1621 90.8381 19.1621C92.9475 19.1621 94.2307 20.1816 94.2307 22.0449V23.3281L89.3967 23.627C84.4573 23.9258 81.7678 25.9121 81.7678 29.4277C81.7678 32.8906 84.5627 35.2285 88.2893 35.2285ZM121.489 22.7832C121.243 18.4766 117.92 15.3125 112.717 15.3125C106.969 15.3125 103.278 19.1797 103.278 25.3145C103.278 31.5371 106.969 35.334 112.752 35.334C117.833 35.334 121.208 32.4688 121.506 27.9688H116.725C116.391 30.0957 114.967 31.2734 112.805 31.2734C110.151 31.2734 108.481 29.0938 108.481 25.3145C108.481 21.6055 110.151 19.3555 112.788 19.3555C115.02 19.3555 116.426 20.7793 116.708 22.7832H121.489ZM125.473 35H130.606V24.0137C130.606 21.4121 132.1 19.6367 134.632 19.6367C137.075 19.6367 138.341 21.166 138.341 23.6973V35H143.473V22.625C143.473 18.1426 140.995 15.3652 136.706 15.3652C133.753 15.3652 131.714 16.666 130.624 19.1094H130.518V8.42188H125.473V35ZM156.774 19.1445C159.147 19.1445 160.8 20.7969 160.888 23.3281H152.538C152.714 20.8496 154.436 19.1445 156.774 19.1445ZM160.958 29.0938C160.466 30.5879 158.936 31.502 157.003 31.502C154.296 31.502 152.485 29.6211 152.485 26.8262V26.5098H165.845V24.9277C165.845 19.0391 162.294 15.3125 156.722 15.3125C151.044 15.3125 147.423 19.25 147.423 25.4023C147.423 31.5547 151.026 35.334 156.915 35.334C161.626 35.334 165.124 32.8379 165.686 29.0938H160.958ZM179.228 9.63477V35H184.537V27.002H189.546C194.89 27.002 198.599 23.5215 198.599 18.3184C198.599 13.0977 195.013 9.63477 189.81 9.63477H179.228ZM184.537 13.8359H188.404C191.445 13.8359 193.203 15.4531 193.203 18.3359C193.203 21.2363 191.427 22.8535 188.386 22.8535H184.537V13.8359ZM210.617 19.1445C212.99 19.1445 214.642 20.7969 214.73 23.3281H206.381C206.556 20.8496 208.279 19.1445 210.617 19.1445ZM214.8 29.0938C214.308 30.5879 212.779 31.502 210.845 31.502C208.138 31.502 206.328 29.6211 206.328 26.8262V26.5098H219.687V24.9277C219.687 19.0391 216.136 15.3125 210.564 15.3125C204.886 15.3125 201.265 19.25 201.265 25.4023C201.265 31.5547 204.869 35.334 210.758 35.334C215.468 35.334 218.966 32.8379 219.529 29.0938H214.8ZM223.707 35H228.84V24.1719C228.84 21.4648 230.369 19.8477 232.971 19.8477C233.726 19.8477 234.43 19.9707 234.869 20.1465V15.6113C234.5 15.4883 233.973 15.418 233.375 15.418C231.09 15.418 229.42 16.7188 228.769 19.1094H228.664V15.6465H223.707V35ZM239.803 35H244.936V19.5312H248.451V15.6465H244.83V14.2227C244.848 12.8691 245.481 12.2891 247.027 12.2891C247.59 12.2891 248.065 12.3418 248.434 12.4121V8.84375C247.731 8.73828 246.94 8.66797 246.061 8.66797C241.578 8.66797 239.803 10.1973 239.803 13.9238V15.6465H237.184V19.5312H239.803V35ZM260.891 35.334C266.762 35.334 270.436 31.5898 270.436 25.3145C270.436 19.1094 266.727 15.3125 260.891 15.3125C255.073 15.3125 251.346 19.127 251.346 25.3145C251.346 31.5723 255.02 35.334 260.891 35.334ZM260.891 31.3789C258.184 31.3789 256.549 29.1641 256.549 25.3145C256.549 21.5176 258.184 19.25 260.891 19.25C263.58 19.25 265.215 21.5 265.215 25.3145C265.215 29.1641 263.598 31.3789 260.891 31.3789ZM274.456 35H279.589V24.1719C279.589 21.4648 281.118 19.8477 283.719 19.8477C284.475 19.8477 285.178 19.9707 285.618 20.1465V15.6113C285.249 15.4883 284.721 15.418 284.124 15.418C281.839 15.418 280.169 16.7188 279.518 19.1094H279.413V15.6465H274.456V35ZM289.075 35H294.208V23.3633C294.208 21.166 295.614 19.6191 297.636 19.6191C299.622 19.6191 300.817 20.8672 300.817 22.9414V35H305.774V23.293C305.774 21.0957 307.128 19.6191 309.149 19.6191C311.241 19.6191 312.384 20.8672 312.384 23.1348V35H317.516V21.8516C317.516 17.9492 314.968 15.3652 311.171 15.3652C308.358 15.3652 306.038 16.8945 305.159 19.3203H305.054C304.403 16.7891 302.434 15.3652 299.657 15.3652C297.073 15.3652 294.964 16.8242 294.138 19.1621H294.032V15.6465H289.075V35ZM329.587 31.4844C327.724 31.4844 326.511 30.5879 326.511 29.1641C326.511 27.7402 327.653 26.8965 329.798 26.7559L333.859 26.4746V27.8984C333.859 30.0078 331.96 31.4844 329.587 31.4844ZM327.917 35.2285C330.396 35.2285 332.786 34.0332 333.841 32.0117H333.946V35H338.903V21.7285C338.903 17.8613 335.651 15.3125 330.677 15.3125C325.843 15.3125 322.503 17.8613 322.362 21.5527H327.056C327.302 20.1465 328.603 19.1621 330.466 19.1621C332.575 19.1621 333.859 20.1816 333.859 22.0449V23.3281L329.025 23.627C324.085 23.9258 321.396 25.9121 321.396 29.4277C321.396 32.8906 324.191 35.2285 327.917 35.2285ZM343.626 35H348.759V23.9609C348.759 21.3945 350.236 19.6367 352.697 19.6367C355.122 19.6367 356.318 21.0957 356.318 23.6621V35H361.451V22.5898C361.451 18.0723 359.025 15.3652 354.736 15.3652C351.765 15.3652 349.796 16.666 348.689 19.1094H348.583V15.6465H343.626V35ZM383.611 22.7832C383.365 18.4766 380.043 15.3125 374.839 15.3125C369.091 15.3125 365.4 19.1797 365.4 25.3145C365.4 31.5371 369.091 35.334 374.875 35.334C379.955 35.334 383.33 32.4688 383.629 27.9688H378.847C378.513 30.0957 377.089 31.2734 374.927 31.2734C372.273 31.2734 370.603 29.0938 370.603 25.3145C370.603 21.6055 372.273 19.3555 374.91 19.3555C377.142 19.3555 378.548 20.7793 378.83 22.7832H383.611ZM396.086 19.1445C398.459 19.1445 400.111 20.7969 400.199 23.3281H391.849C392.025 20.8496 393.748 19.1445 396.086 19.1445ZM400.269 29.0938C399.777 30.5879 398.248 31.502 396.314 31.502C393.607 31.502 391.797 29.6211 391.797 26.8262V26.5098H405.156V24.9277C405.156 19.0391 401.605 15.3125 396.033 15.3125C390.355 15.3125 386.734 19.25 386.734 25.4023C386.734 31.5547 390.338 35.334 396.226 35.334C400.937 35.334 404.435 32.8379 404.998 29.0938H400.269ZM435.151 35H440.793L431.969 9.63477H425.729L416.922 35H422.371L424.305 28.8477H433.217L435.151 35ZM428.7 14.4863H428.823L432.075 24.875H425.448L428.7 14.4863ZM444.286 35H449.419V23.9609C449.419 21.3945 450.895 19.6367 453.356 19.6367C455.782 19.6367 456.977 21.0957 456.977 23.6621V35H462.11V22.5898C462.11 18.0723 459.684 15.3652 455.395 15.3652C452.424 15.3652 450.456 16.666 449.348 19.1094H449.243V15.6465H444.286V35ZM474.18 31.4844C472.317 31.4844 471.104 30.5879 471.104 29.1641C471.104 27.7402 472.247 26.8965 474.391 26.7559L478.452 26.4746V27.8984C478.452 30.0078 476.554 31.4844 474.18 31.4844ZM472.511 35.2285C474.989 35.2285 477.38 34.0332 478.434 32.0117H478.54V35H483.497V21.7285C483.497 17.8613 480.245 15.3125 475.27 15.3125C470.436 15.3125 467.096 17.8613 466.956 21.5527H471.649C471.895 20.1465 473.196 19.1621 475.059 19.1621C477.169 19.1621 478.452 20.1816 478.452 22.0449V23.3281L473.618 23.627C468.679 23.9258 465.989 25.9121 465.989 29.4277C465.989 32.8906 468.784 35.2285 472.511 35.2285ZM488.36 35H493.493V8.42188H488.36V35ZM500.835 42.0664C505.669 42.0664 508.042 40.3262 509.695 35.3867L516.392 15.6465H510.978L506.777 30.834H506.671L502.488 15.6465H496.863L503.648 35.123L503.472 35.8613C503.068 37.4082 501.96 38.0762 500.044 38.0762C499.833 38.0762 499.06 38.0586 498.884 38.0234V41.9961C499.077 42.0312 500.642 42.0664 500.835 42.0664ZM519.164 21.3418C519.164 24.1719 521.044 26.0527 524.683 26.8789L528.251 27.6875C530.009 28.1094 530.677 28.6367 530.677 29.6387C530.677 30.9043 529.429 31.6953 527.39 31.6953C525.263 31.6953 523.945 30.7812 523.699 29.1465H518.689C518.953 32.873 522.152 35.334 527.25 35.334C532.312 35.334 535.775 32.8555 535.775 29.0938C535.775 26.2109 534.228 24.7168 530.343 23.8379L526.705 23.0469C524.964 22.6426 524.121 21.9922 524.121 21.0254C524.121 19.7773 525.351 18.9512 527.197 18.9512C529.166 18.9512 530.449 19.918 530.554 21.4473H535.3C535.23 17.7559 532.048 15.3125 527.267 15.3125C522.363 15.3125 519.164 17.7031 519.164 21.3418ZM548.338 19.1445C550.711 19.1445 552.363 20.7969 552.451 23.3281H544.101C544.277 20.8496 546 19.1445 548.338 19.1445ZM552.521 29.0938C552.029 30.5879 550.5 31.502 548.566 31.502C545.859 31.502 544.049 29.6211 544.049 26.8262V26.5098H557.408V24.9277C557.408 19.0391 553.857 15.3125 548.285 15.3125C542.607 15.3125 538.986 19.25 538.986 25.4023C538.986 31.5547 542.59 35.334 548.478 35.334C553.189 35.334 556.687 32.8379 557.25 29.0938H552.521ZM561.428 35H566.561V24.1719C566.561 21.4648 568.09 19.8477 570.691 19.8477C571.447 19.8477 572.15 19.9707 572.59 20.1465V15.6113C572.221 15.4883 571.693 15.418 571.096 15.418C568.811 15.418 567.141 16.7188 566.49 19.1094H566.385V15.6465H561.428V35Z" fill="#211A1D"/>
<path d="M13.8 33.7333C17.1873 33.7333 19.9333 30.9874 19.9333 27.6C19.9333 24.2127 17.1873 21.4667 13.8 21.4667C10.4126 21.4667 7.66666 24.2127 7.66666 27.6C7.66666 30.9874 10.4126 33.7333 13.8 33.7333Z" fill="black"/>
<path d="M28.3667 38.3333C30.4837 38.3333 32.2 36.6171 32.2 34.5C32.2 32.3829 30.4837 30.6667 28.3667 30.6667C26.2496 30.6667 24.5333 32.3829 24.5333 34.5C24.5333 36.6171 26.2496 38.3333 28.3667 38.3333Z" fill="black"/>
<path d="M29.1333 26.0667C34.2143 26.0667 38.3333 21.9477 38.3333 16.8667C38.3333 11.7856 34.2143 7.66666 29.1333 7.66666C24.0523 7.66666 19.9333 11.7856 19.9333 16.8667C19.9333 21.9477 24.0523 26.0667 29.1333 26.0667Z" fill="black"/>
</svg>
