<svg width="518" height="35" viewBox="0 0 518 35" fill="none" xmlns="http://www.w3.org/2000/svg">
<path d="M12.3242 27.4395C18.5469 27.4395 22.8887 23.8535 23.4863 18.1934H18.3184C17.7559 21.1992 15.4883 23.0449 12.3418 23.0449C8.28125 23.0449 5.73242 19.7051 5.73242 14.291C5.73242 8.94727 8.31641 5.58984 12.3242 5.58984C15.418 5.58984 17.8086 7.62891 18.3008 10.7402H23.4688C23.0645 5.0625 18.4238 1.19531 12.3242 1.19531C4.97656 1.19531 0.318359 6.13477 0.318359 14.3086C0.318359 22.5 4.94141 27.4395 12.3242 27.4395ZM34.9592 23.4844C33.0959 23.4844 31.883 22.5879 31.883 21.1641C31.883 19.7402 33.0256 18.8965 35.1702 18.7559L39.2307 18.4746V19.8984C39.2307 22.0078 37.3323 23.4844 34.9592 23.4844ZM33.2893 27.2285C35.7678 27.2285 38.1584 26.0332 39.2131 24.0117H39.3186V27H44.2756V13.7285C44.2756 9.86133 41.0237 7.3125 36.0491 7.3125C31.2151 7.3125 27.8752 9.86133 27.7346 13.5527H32.428C32.6741 12.1465 33.9748 11.1621 35.8381 11.1621C37.9475 11.1621 39.2307 12.1816 39.2307 14.0449V15.3281L34.3967 15.627C29.4573 15.9258 26.7678 17.9121 26.7678 21.4277C26.7678 24.8906 29.5627 27.2285 33.2893 27.2285ZM66.4888 14.7832C66.2427 10.4766 62.9204 7.3125 57.7173 7.3125C51.9692 7.3125 48.2778 11.1797 48.2778 17.3145C48.2778 23.5371 51.9692 27.334 57.7524 27.334C62.8325 27.334 66.2075 24.4688 66.5063 19.9688H61.7251C61.3911 22.0957 59.9673 23.2734 57.8052 23.2734C55.1509 23.2734 53.4809 21.0938 53.4809 17.3145C53.4809 13.6055 55.1509 11.3555 57.7876 11.3555C60.02 11.3555 61.4263 12.7793 61.7075 14.7832H66.4888ZM70.4734 27H75.6062V16.0137C75.6062 13.4121 77.1003 11.6367 79.6316 11.6367C82.0749 11.6367 83.3405 13.166 83.3405 15.6973V27H88.4734V14.625C88.4734 10.1426 85.9948 7.36523 81.7058 7.36523C78.7527 7.36523 76.7136 8.66602 75.6237 11.1094H75.5183V0.421875H70.4734V27ZM101.774 11.1445C104.147 11.1445 105.8 12.7969 105.888 15.3281H97.538C97.7138 12.8496 99.4365 11.1445 101.774 11.1445ZM105.958 21.0938C105.466 22.5879 103.936 23.502 102.003 23.502C99.2959 23.502 97.4853 21.6211 97.4853 18.8262V18.5098H110.845V16.9277C110.845 11.0391 107.294 7.3125 101.722 7.3125C96.0439 7.3125 92.4228 11.25 92.4228 17.4023C92.4228 23.5547 96.0263 27.334 101.915 27.334C106.626 27.334 110.124 24.8379 110.686 21.0938H105.958ZM124.228 1.63477V27H129.537V19.002H134.546C139.89 19.002 143.599 15.5215 143.599 10.3184C143.599 5.09766 140.013 1.63477 134.81 1.63477H124.228ZM129.537 5.83594H133.404C136.445 5.83594 138.203 7.45312 138.203 10.3359C138.203 13.2363 136.427 14.8535 133.386 14.8535H129.537V5.83594ZM155.617 11.1445C157.99 11.1445 159.642 12.7969 159.73 15.3281H151.381C151.556 12.8496 153.279 11.1445 155.617 11.1445ZM159.8 21.0938C159.308 22.5879 157.779 23.502 155.845 23.502C153.138 23.502 151.328 21.6211 151.328 18.8262V18.5098H164.687V16.9277C164.687 11.0391 161.136 7.3125 155.564 7.3125C149.886 7.3125 146.265 11.25 146.265 17.4023C146.265 23.5547 149.869 27.334 155.758 27.334C160.468 27.334 163.966 24.8379 164.529 21.0938H159.8ZM168.707 27H173.84V16.1719C173.84 13.4648 175.369 11.8477 177.971 11.8477C178.726 11.8477 179.43 11.9707 179.869 12.1465V7.61133C179.5 7.48828 178.973 7.41797 178.375 7.41797C176.09 7.41797 174.42 8.71875 173.769 11.1094H173.664V7.64648H168.707V27ZM184.803 27H189.936V11.5312H193.451V7.64648H189.83V6.22266C189.848 4.86914 190.481 4.28906 192.027 4.28906C192.59 4.28906 193.065 4.3418 193.434 4.41211V0.84375C192.731 0.738281 191.94 0.667969 191.061 0.667969C186.578 0.667969 184.803 2.19727 184.803 5.92383V7.64648H182.184V11.5312H184.803V27ZM205.891 27.334C211.762 27.334 215.436 23.5898 215.436 17.3145C215.436 11.1094 211.727 7.3125 205.891 7.3125C200.073 7.3125 196.346 11.127 196.346 17.3145C196.346 23.5723 200.02 27.334 205.891 27.334ZM205.891 23.3789C203.184 23.3789 201.549 21.1641 201.549 17.3145C201.549 13.5176 203.184 11.25 205.891 11.25C208.58 11.25 210.215 13.5 210.215 17.3145C210.215 21.1641 208.598 23.3789 205.891 23.3789ZM219.456 27H224.589V16.1719C224.589 13.4648 226.118 11.8477 228.719 11.8477C229.475 11.8477 230.178 11.9707 230.618 12.1465V7.61133C230.249 7.48828 229.721 7.41797 229.124 7.41797C226.839 7.41797 225.169 8.71875 224.518 11.1094H224.413V7.64648H219.456V27ZM234.075 27H239.208V15.3633C239.208 13.166 240.614 11.6191 242.636 11.6191C244.622 11.6191 245.817 12.8672 245.817 14.9414V27H250.774V15.293C250.774 13.0957 252.128 11.6191 254.149 11.6191C256.241 11.6191 257.384 12.8672 257.384 15.1348V27H262.516V13.8516C262.516 9.94922 259.968 7.36523 256.171 7.36523C253.358 7.36523 251.038 8.89453 250.159 11.3203H250.054C249.403 8.78906 247.434 7.36523 244.657 7.36523C242.073 7.36523 239.964 8.82422 239.138 11.1621H239.032V7.64648H234.075V27ZM274.587 23.4844C272.724 23.4844 271.511 22.5879 271.511 21.1641C271.511 19.7402 272.653 18.8965 274.798 18.7559L278.859 18.4746V19.8984C278.859 22.0078 276.96 23.4844 274.587 23.4844ZM272.917 27.2285C275.396 27.2285 277.786 26.0332 278.841 24.0117H278.946V27H283.903V13.7285C283.903 9.86133 280.651 7.3125 275.677 7.3125C270.843 7.3125 267.503 9.86133 267.362 13.5527H272.056C272.302 12.1465 273.603 11.1621 275.466 11.1621C277.575 11.1621 278.859 12.1816 278.859 14.0449V15.3281L274.025 15.627C269.085 15.9258 266.396 17.9121 266.396 21.4277C266.396 24.8906 269.191 27.2285 272.917 27.2285ZM288.626 27H293.759V15.9609C293.759 13.3945 295.236 11.6367 297.697 11.6367C300.122 11.6367 301.318 13.0957 301.318 15.6621V27H306.451V14.5898C306.451 10.0723 304.025 7.36523 299.736 7.36523C296.765 7.36523 294.796 8.66602 293.689 11.1094H293.583V7.64648H288.626V27ZM328.611 14.7832C328.365 10.4766 325.043 7.3125 319.839 7.3125C314.091 7.3125 310.4 11.1797 310.4 17.3145C310.4 23.5371 314.091 27.334 319.875 27.334C324.955 27.334 328.33 24.4688 328.629 19.9688H323.847C323.513 22.0957 322.089 23.2734 319.927 23.2734C317.273 23.2734 315.603 21.0938 315.603 17.3145C315.603 13.6055 317.273 11.3555 319.91 11.3555C322.142 11.3555 323.548 12.7793 323.83 14.7832H328.611ZM341.086 11.1445C343.459 11.1445 345.111 12.7969 345.199 15.3281H336.849C337.025 12.8496 338.748 11.1445 341.086 11.1445ZM345.269 21.0938C344.777 22.5879 343.248 23.502 341.314 23.502C338.607 23.502 336.797 21.6211 336.797 18.8262V18.5098H350.156V16.9277C350.156 11.0391 346.605 7.3125 341.033 7.3125C335.355 7.3125 331.734 11.25 331.734 17.4023C331.734 23.5547 335.338 27.334 341.226 27.334C345.937 27.334 349.435 24.8379 349.998 21.0938H345.269ZM380.151 27H385.793L376.969 1.63477H370.729L361.922 27H367.371L369.305 20.8477H378.217L380.151 27ZM373.7 6.48633H373.823L377.075 16.875H370.448L373.7 6.48633ZM389.286 27H394.419V15.9609C394.419 13.3945 395.895 11.6367 398.356 11.6367C400.782 11.6367 401.977 13.0957 401.977 15.6621V27H407.11V14.5898C407.11 10.0723 404.684 7.36523 400.395 7.36523C397.424 7.36523 395.456 8.66602 394.348 11.1094H394.243V7.64648H389.286V27ZM419.18 23.4844C417.317 23.4844 416.104 22.5879 416.104 21.1641C416.104 19.7402 417.247 18.8965 419.391 18.7559L423.452 18.4746V19.8984C423.452 22.0078 421.554 23.4844 419.18 23.4844ZM417.511 27.2285C419.989 27.2285 422.38 26.0332 423.434 24.0117H423.54V27H428.497V13.7285C428.497 9.86133 425.245 7.3125 420.27 7.3125C415.436 7.3125 412.096 9.86133 411.956 13.5527H416.649C416.895 12.1465 418.196 11.1621 420.059 11.1621C422.169 11.1621 423.452 12.1816 423.452 14.0449V15.3281L418.618 15.627C413.679 15.9258 410.989 17.9121 410.989 21.4277C410.989 24.8906 413.784 27.2285 417.511 27.2285ZM433.36 27H438.493V0.421875H433.36V27ZM445.835 34.0664C450.669 34.0664 453.042 32.3262 454.695 27.3867L461.392 7.64648H455.978L451.777 22.834H451.671L447.488 7.64648H441.863L448.648 27.123L448.472 27.8613C448.068 29.4082 446.96 30.0762 445.044 30.0762C444.833 30.0762 444.06 30.0586 443.884 30.0234V33.9961C444.077 34.0312 445.642 34.0664 445.835 34.0664ZM464.164 13.3418C464.164 16.1719 466.044 18.0527 469.683 18.8789L473.251 19.6875C475.009 20.1094 475.677 20.6367 475.677 21.6387C475.677 22.9043 474.429 23.6953 472.39 23.6953C470.263 23.6953 468.945 22.7812 468.699 21.1465H463.689C463.953 24.873 467.152 27.334 472.25 27.334C477.312 27.334 480.775 24.8555 480.775 21.0938C480.775 18.2109 479.228 16.7168 475.343 15.8379L471.705 15.0469C469.964 14.6426 469.121 13.9922 469.121 13.0254C469.121 11.7773 470.351 10.9512 472.197 10.9512C474.166 10.9512 475.449 11.918 475.554 13.4473H480.3C480.23 9.75586 477.048 7.3125 472.267 7.3125C467.363 7.3125 464.164 9.70312 464.164 13.3418ZM493.338 11.1445C495.711 11.1445 497.363 12.7969 497.451 15.3281H489.101C489.277 12.8496 491 11.1445 493.338 11.1445ZM497.521 21.0938C497.029 22.5879 495.5 23.502 493.566 23.502C490.859 23.502 489.049 21.6211 489.049 18.8262V18.5098H502.408V16.9277C502.408 11.0391 498.857 7.3125 493.285 7.3125C487.607 7.3125 483.986 11.25 483.986 17.4023C483.986 23.5547 487.59 27.334 493.478 27.334C498.189 27.334 501.687 24.8379 502.25 21.0938H497.521ZM506.428 27H511.561V16.1719C511.561 13.4648 513.09 11.8477 515.691 11.8477C516.447 11.8477 517.15 11.9707 517.59 12.1465V7.61133C517.221 7.48828 516.693 7.41797 516.096 7.41797C513.811 7.41797 512.141 8.71875 511.49 11.1094H511.385V7.64648H506.428V27Z" fill="#211A1D"/>
</svg>
